HIERARCHY
ROOT Hips
{
  OFFSET 0 0 0
  CHANNELS 6 Xposition Yposition Zposition Zrotation Xrotation Yrotation
  JOINT Spine
  {
    OFFSET 0 10.1816 0.131521
    CHANNELS 3 Zrotation Xrotation Yrotation
    JOINT Spine1
    {
      OFFSET 0 10.0835 -1.0008
      CHANNELS 3 Zrotation Xrotation Yrotation
      JOINT Spine2
      {
        OFFSET 0 9.10001 -1.37342
        CHANNELS 3 Zrotation Xrotation Yrotation
        JOINT Neck
        {
          OFFSET 0 16.6717 -2.51617
          CHANNELS 3 Zrotation Xrotation Yrotation
          JOINT Head
          {
            OFFSET 0 9.61788 1.68501
            CHANNELS 3 Zrotation Xrotation Yrotation
            End Site
            {
              OFFSET 0 0 0
            }
          }
        }
        JOINT LeftShoulder
        {
          OFFSET 4.57045 10.946 -2.62799
          CHANNELS 3 Zrotation Xrotation Yrotation
          JOINT LeftArm
          {
            OFFSET 10.5924 -0.524583 -2.23212
            CHANNELS 3 Zrotation Xrotation Yrotation
            JOINT LeftForeArm
            {
              OFFSET 27.8415 -8.94286e-05 3.74589e-05
              CHANNELS 3 Zrotation Xrotation Yrotation
              JOINT LeftHand
              {
                OFFSET 28.3288 -1.74407e-05 3.78045e-05
                CHANNELS 3 Zrotation Xrotation Yrotation
                End Site
                {
                  OFFSET 0 0 0
                }
              }
            }
          }
        }
        JOINT RightShoulder
        {
          OFFSET -4.56997 10.9462 -2.62802
          CHANNELS 3 Zrotation Xrotation Yrotation
          JOINT RightArm
          {
            OFFSET -10.5928 -0.524798 -2.2321
            CHANNELS 3 Zrotation Xrotation Yrotation
            JOINT RightForeArm
            {
              OFFSET -27.8415 -3.30792e-05 1.16763e-05
              CHANNELS 3 Zrotation Xrotation Yrotation
              JOINT RightHand
              {
                OFFSET -28.3288 0 5.5816e-05
                CHANNELS 3 Zrotation Xrotation Yrotation
                End Site
                {
                  OFFSET 0 0 0
                }
              }
            }
          }
        }
      }
    }
  }
  JOINT LeftUpLeg
  {
    OFFSET 8.20778 -6.75171 -1.59956
    CHANNELS 3 Zrotation Xrotation Yrotation
    JOINT LeftLeg
    {
      OFFSET 0 -44.3705 0.284643
      CHANNELS 3 Zrotation Xrotation Yrotation
      JOINT LeftFoot
      {
        OFFSET 0 -44.4279 -2.98219
        CHANNELS 3 Zrotation Xrotation Yrotation
        JOINT LeftToeBase
        {
          OFFSET 0 -8.72867 10.7106
          CHANNELS 3 Zrotation Xrotation Yrotation
          End Site
          {
            OFFSET 0 0 0
          }
        }
      }
    }
  }
  JOINT RightUpLeg
  {
    OFFSET -8.2078 -6.75166 -1.59956
    CHANNELS 3 Zrotation Xrotation Yrotation
    JOINT RightLeg
    {
      OFFSET 0 -44.3705 0.286156
      CHANNELS 3 Zrotation Xrotation Yrotation
      JOINT RightFoot
      {
        OFFSET 0 -44.4277 -2.98379
        CHANNELS 3 Zrotation Xrotation Yrotation
        JOINT RightToeBase
        {
          OFFSET 0 -8.72867 10.7106
          CHANNELS 3 Zrotation Xrotation Yrotation
          End Site
          {
            OFFSET 0 0 0
          }
        }
      }
    }
  }
}
MOTION
Frames:	19
Frame Time:	0.0333333
0.406783 88.2488 0.614755 0.811857 -5.39282 -38.2985 -1.957 9.24296 7.55267 -0.916149 2.17162 1.02473 -0.894674 2.18723 1.01704 4.4332 1.12112 13.1708 -3.91066 7.47951 20.6962 -8.61707 0.572558 3.67366 -67.9227 -32.7083 -45.2099 -0.000244141 -1.97618e-15 -106.358 -15.7588 4.04096 -6.87556 -5.23541 1.81436 13.2489 64.7892 12.3416 53.0667 3.05176e-05 1.93266e-15 105.988 8.39648 -5.59457 18.5714 18.4134 -27.9211 17.8669 8.07762 58.2063 -13.1879 -14.4915 -21.5772 -13.9737 1.87292e-07 -1.59403 2.72166e-06 -28.3979 -17.7174 -21.5917 -14.3751 57.9415 2.41692 22.3158 -24.8468 3.83547 3.48309e-06 -0.0129996 1.80785e-05 
0.163329 88.1248 3.64303 0.126186 -6.13994 -37.2531 -1.79943 10.4378 6.88441 -1.15648 2.4385 0.767285 -0.948823 2.57779 0.727975 4.49145 0.589948 13.4961 -3.50405 6.11085 20.3214 -8.5993 0.914929 2.74825 -68.2921 -34.5282 -45.4671 -0.000276115 -9.31684e-06 -107.776 -16.1413 4.32979 -6.52623 -5.4524 1.56314 13.286 65.3218 12.8448 52.2634 4.51176e-05 4.43501e-06 106.897 7.92615 -5.05962 17.0523 18.5655 -28.2211 17.9034 9.89368 63.1123 -13.7481 -14.4083 -18.1017 -16.1974 1.59039 -5.10266 0.0970316 -29.2156 -14.2873 -21.0886 -14.0488 57.1139 2.35635 21.8412 -23.456 3.19713 5.2527e-06 -2.28946 -1.65335e-05 
-0.789917 88.381 6.85842 -0.576369 -7.09836 -35.8431 -1.80716 11.7589 6.19801 -1.71571 2.96488 0.0319717 -1.0573 3.32636 0.11427 4.55794 -0.127561 13.8598 -3.21829 4.53056 20.0545 -8.56439 1.37109 1.49933 -69.8136 -38.0952 -46.0428 -0.000184092 -5.39628e-06 -110.711 -17.3566 2.56441 -7.57756 -5.6499 1.36252 13.3593 65.0847 14.3348 51.2055 5.9428e-05 9.7728e-06 108.677 6.82046 -3.00979 15.6259 18.6812 -27.8795 17.7066 11.4885 66.1367 -13.6945 -14.4944 -9.6776 -19.8287 4.48234 -14.7116 0.950475 -29.4377 -9.56657 -20.5697 -13.5094 55.2211 1.92312 21.2534 -22.021 2.44299 5.73411e-06 -4.83139 -2.77919e-05 
-1.91874 88.8885 10.2036 -1.06115 -8.07484 -34.4977 -1.98898 12.9075 5.70616 -2.37167 3.64639 -0.916311 -1.19246 4.06571 -0.463755 4.63644 -0.981466 14.2285 -3.02345 2.9309 19.8935 -8.51019 1.63938 0.739929 -71.4009 -41.0835 -46.5128 -0.000228882 -2.82339e-15 -113.727 -18.0051 0.499043 -8.8222 -5.52281 1.45921 13.4943 64.0374 15.6193 50.1747 1.35993e-14 2.42979e-15 110.26 6.16324 -1.63391 14.0809 18.8653 -28.1546 17.8659 13.215 68.6783 -14.7147 -13.8939 0.665 -23.8215 7.16264 -23.0456 2.36943 -29.5572 -4.42938 -20.1592 -12.8598 52.2986 1.47172 20.3915 -19.8654 1.48737 1.05906e-06 -7.60068 1.25761e-05 
-2.86772 89.4456 13.5561 -1.3138 -8.66212 -33.7416 -2.19098 13.6554 5.53263 -2.92602 4.32314 -1.91884 -1.31352 4.57873 -0.691671 4.74101 -1.85133 14.5477 -2.85739 1.56572 19.805 -8.37543 1.41593 1.27421 -71.9544 -42.4512 -45.9192 -0.000199926 -6.72385e-06 -116.146 -18.001 -1.24926 -9.73725 -4.75834 1.96774 13.7035 62.3763 16.5376 49.123 3.05176e-05 2.55531e-15 111.357 5.8042 -0.861566 12.5728 20.2765 -29.9678 18.5136 16.5944 72.468 -18.0964 -13.4697 7.77575 -27.2874 4.34126 -20.3401 1.3364 -29.7589 0.0545741 -19.9271 -12.3236 48.796 1.43234 19.2456 -16.8063 0.404889 1.72029e-06 -10.5088 1.64636e-05 
-3.47666 89.8971 16.7993 -1.40275 -8.87936 -33.7617 -2.3118 13.9601 5.68395 -3.18498 4.84415 -2.21383 -1.37815 4.70453 -0.647568 4.88341 -2.62403 14.776 -2.56286 0.51145 19.6561 -8.12146 0.664661 3.19807 -70.6213 -41.2219 -43.8474 -0.000198364 3.1441e-15 -116.621 -17.2998 -1.50468 -10.3225 -3.49057 2.89097 13.9528 60.9498 16.7944 48.0167 4.57764e-05 -5.28916e-13 111.28 6.40494 -0.624102 11.7908 22.6113 -32.0977 19.4309 20.809 74.9049 -22.5583 -13.9895 9.08044 -28.1614 8.57901e-06 -11.9924 -6.96819e-06 -30.23 3.45227 -19.7098 -12.0009 45.2258 1.9718 18.0635 -12.9432 -0.663336 5.87906e-06 -13.4429 3.9174e-06 
-3.72713 90.1692 20.0493 -1.31639 -8.63594 -34.2259 -2.39827 13.9201 6.09144 -3.09434 5.17652 -1.99921 -1.38118 4.4444 -0.471148 5.02747 -3.25907 14.9081 -1.99098 -0.479399 19.2479 -7.84725 -0.305959 5.72936 -67.9233 -38.1991 -41.131 -0.000230374 -6.58213e-06 -115.554 -16.7142 -0.974789 -10.5121 -2.2858 3.7747 14.1741 60.354 16.6323 46.9965 -9.96355e-07 5.42343e-06 110.82 7.22164 -1.00088 11.2811 25.0683 -33.3249 20.3345 21.1072 72.8132 -22.9194 -15.7543 5.86216 -25.3533 -3.05426e-06 -6.60377 2.01064e-05 -30.8342 5.91112 -19.4001 -11.7893 41.5892 2.87263 17.2184 -8.49512 -1.65158 0.225389 -16.4331 0.0632574 
-3.64156 89.9785 23.469 -1.0371 -7.90038 -34.7543 -2.55292 13.6559 6.68551 -2.79699 5.33927 -1.61785 -1.35919 3.93143 -0.0970964 5.06892 -3.68674 14.9377 -1.23632 -1.51218 18.4993 -7.73877 -1.10564 7.88043 -65.2087 -34.5904 -39.3502 -0.000214947 -6.21807e-06 -114.048 -16.8888 -0.734739 -9.76618 -1.59753 4.30791 14.3344 60.5617 15.8787 46.0264 4.24883e-05 1.70359e-05 111.849 7.48383 -2.54731 10.119 27.648 -34.352 21.2185 19.2184 67.2352 -19.6303 -17.873 0.768065 -20.8596 6.51041e-07 -2.40961 -7.4346e-06 -31.5057 7.56461 -18.7663 -11.6836 38.3417 4.10193 17.0129 -4.01497 -2.5766 1.4204 -19.8089 0.461796 
-3.31284 88.8442 27.0345 -0.581597 -6.9499 -35.2765 -2.93293 13.253 7.49316 -2.38348 5.3431 -1.11129 -1.32351 3.21144 0.40559 4.91015 -3.74789 14.8162 -0.652127 -2.07636 17.5053 -7.85441 -1.55812 9.17556 -63.6828 -31.2326 -39.4442 -0.000227715 5.85311e-06 -112.556 -17.7084 -1.24722 -7.77668 -1.44906 4.46278 14.4674 60.9604 14.4206 45.6414 3.05176e-05 2.72479e-12 114.001 6.8858 -5.50881 7.43555 30.3394 -35.3708 22.0756 17.0241 59.4781 -13.6345 -19.053 -3.07907 -17.4361 -7.4666e-06 0.68546 1.9109e-06 -32.5783 8.16335 -17.2381 -11.8301 36.9374 5.74398 17.551 -0.370483 -3.42544 3.37357 -23.3152 1.22881 
-2.85667 86.7026 30.8001 -0.085185 -5.91315 -35.8387 -3.55144 12.773 8.57149 -1.95562 5.19514 -0.502846 -1.28121 2.27698 0.912655 4.58757 -3.43617 14.4988 -0.632103 -1.27936 16.3109 -8.02676 -1.73829 9.73606 -63.7069 -28.3482 -40.9947 -0.000247364 -1.68728e-05 -111.629 -18.2596 -2.21717 -4.90734 -1.55742 4.45822 14.6193 61.061 12.031 46.2471 2.89429e-05 6.75107e-06 116.26 5.53531 -9.41257 3.31936 33.3809 -36.136 23.1311 14.6776 50.447 -6.40245 -18.4982 -4.56906 -16.0329 -3.91498e-07 2.16117 -4.76466e-06 -33.8694 8.05463 -14.4467 -12.2202 37.1728 6.91342 18.8106 2.19355 -4.18062 5.69473 -26.6238 2.26142 
-2.31822 84.3732 34.8301 0.263978 -4.81912 -36.4449 -4.21262 12.2822 9.83025 -1.57557 4.90388 0.180586 -1.23845 1.05346 1.33753 4.28622 -3.10649 14.0296 -0.915009 0.0358094 15.1926 -8.02447 -1.79951 9.88593 -64.8038 -25.2729 -43.317 -0.000216675 -1.64358e-05 -111.042 -17.3423 -1.65925 -2.07815 -1.6629 4.47778 14.7902 60.8826 8.95412 46.7466 1.70379e-05 -7.15038e-06 117.944 4.74472 -12.9525 0.544575 36.2551 -36.7331 24.1871 12.3446 41.2761 -0.494455 -16.2954 -4.87537 -15.5573 1.12932e-05 2.08986 -5.75509e-06 -34.6893 8.64922 -10.5026 -12.2388 36.3312 5.85273 20.4328 4.71809 -5.03212 7.52867 -29.2408 3.18629 
-1.72862 81.833 38.7691 0.402343 -3.68508 -37.1163 -4.71814 11.8784 10.9921 -1.30227 4.61272 0.913134 -1.20375 -0.00939459 1.6264 4.17217 -3.15084 13.5465 -1.13034 0.785246 14.3556 -7.79851 -1.81981 9.82268 -66.2906 -22.4844 -46.1993 -0.000245077 -5.2621e-06 -110.173 -15.2434 0.535177 -0.101356 -1.74223 4.48161 14.9235 60.971 5.58816 47.621 1.63821e-12 -7.15752e-13 119.415 5.28077 -16.056 -1.20933 38.587 -37.4464 25.0406 10.3491 33.6582 2.20342 -13.9099 -5.0651 -14.4605 9.01658e-06 1.73795 -1.05931e-05 -35.0779 9.61822 -5.58733 -11.9555 35.249 2.65717 22.1902 6.49806 -5.93186 8.44007 -30.8624 3.71816 
-1.13626 79.3586 42.0273 0.345934 -2.88734 -37.8702 -4.9729 11.6706 11.7661 -1.20971 4.40124 1.66476 -1.19062 -0.699307 1.84884 4.20196 -3.53674 13.1888 -1.32709 1.12235 13.8401 -7.54919 -1.78992 9.60478 -67.5733 -20.9112 -49.9132 -0.00022816 4.6364e-06 -107.689 -13.0628 3.33971 0.832209 -1.92527 4.31709 14.9348 61.7182 3.05386 49.3039 -1.45125e-12 3.46175e-15 119.562 6.82423 -18.1949 -0.988782 40.2718 -38.2481 25.6558 8.96185 29.2378 2.47273 -13.3267 -4.3529 -12.8952 -2.48691e-06 1.37269 -8.91922e-06 -35.4567 10.4539 -0.170927 -11.2958 34.9413 -0.782475 23.5055 7.50605 -6.74345 9.45176 -32.1098 4.26198 
-0.535019 77.2547 45.1626 0.159094 -2.52245 -38.6565 -5.07874 11.7215 12.1154 -1.36173 4.41732 2.40572 -1.2379 -0.888326 2.00656 4.12107 -3.877 12.978 -1.72049 1.454 13.6571 -7.55468 -1.69023 9.29714 -68.1357 -20.5255 -54.3061 -0.000228363 3.94438e-06 -104.981 -11.4742 6.059 1.80714 -2.26755 3.95345 14.7623 63.2407 1.76837 50.4843 1.52588e-05 -3.47891e-15 119.723 8.87977 -18.9702 1.45114 41.7229 -39.3897 26.2108 8.26204 28.7311 1.79408 -17.0005 0.200015 -11.6776 -5.24024e-06 0.549861 -1.42224e-05 -36.3938 11.5302 5.11754 -9.92564 34.5877 -3.28758 24.0321 8.81768 -7.24072 10.8113 -33.255 4.94241 
0.0755316 75.79 48.4209 -0.0406323 -2.48927 -39.3439 -5.24574 12.0676 12.182 -1.72009 4.82906 3.1043 -1.37839 -0.677517 2.10154 3.7357 -3.87643 12.8176 -2.57714 2.12134 13.7886 -7.93103 -1.55166 9.0433 -67.8175 -20.8319 -58.2304 -0.000259808 -3.50835e-06 -103.293 -10.6479 8.08779 2.59457 -2.66918 3.53327 14.4304 65.1846 1.5892 50.9824 1.30578e-14 3.56925e-15 120.576 10.4526 -18.4415 3.9247 42.933 -40.6058 26.635 7.98985 30.8849 0.407382 -23.8991 8.30167 -10.0574 6.30708e-06 -0.241043 -5.97523e-06 -37.6707 12.1646 9.16179 -8.96331 34.8476 -4.31026 24.023 11.1302 -7.46951 10.1199 -33.0761 4.62668 
0.712037 74.9347 52.0139 -0.138379 -2.64344 -39.8452 -5.53221 12.7675 11.9549 -2.12358 5.37923 3.7076 -1.53259 -0.353639 2.1414 3.2106 -3.55951 12.6231 -3.74183 3.10395 13.8567 -8.52862 -1.45259 9.0043 -66.8421 -21.2088 -60.2914 -0.000259041 3.28623e-06 -102.437 -10.2831 9.08694 2.5295 -3.00214 3.21138 14.0831 66.8005 2.42967 50.9318 1.30526e-05 7.90322e-06 121.195 11.0034 -16.8098 5.79382 43.5327 -42.4571 27.1277 8.3543 36.7358 -3.11942 -27.4877 11.4637 -9.09919 2.90361e-06 0.0250253 2.2223e-05 -38.9977 11.8429 10.8948 -8.99999 35.9358 -4.18127 23.4539 15.876 -6.8649 8.90556 -32.328 4.01838 
1.32856 74.4737 56.1397 -0.0169666 -2.98226 -40.2325 -5.82216 13.7871 11.5573 -2.42824 5.71902 4.16267 -1.65727 0.0249163 2.13601 2.62299 -3.16353 12.3656 -4.81355 3.76305 13.6086 -9.04137 -1.46002 9.23148 -65.748 -21.4666 -59.7831 -0.000305506 -3.15883e-06 -101.948 -9.97739 8.69599 1.48061 -3.25109 3.00959 13.8935 67.5677 4.21555 50.9024 3.05176e-05 -3.62002e-15 121.059 10.714 -14.1633 5.59295 43.5696 -44.5703 27.464 8.91097 44.5603 -8.23701 -27.8912 9.37559 -9.16273 -2.98635e-08 0.242366 -1.23195e-05 -40.1104 10.3363 10.4006 -10.3526 38.4255 -2.44615 22.8485 21.2188 -6.21178 6.17272 -30.151 2.6851 
1.85234 74.7803 60.5291 0.301936 -3.39562 -40.6032 -5.98477 14.8597 11.2576 -2.56398 5.82661 4.41506 -1.7331 0.428827 2.10209 2.12599 -2.77607 12.0834 -5.67821 4.13135 13.4503 -9.2386 -1.5536 9.56216 -64.9565 -21.4579 -57.0774 -0.000198085 2.90388e-06 -100.971 -9.38261 7.74435 0.299038 -3.49943 2.83858 13.8984 67.4729 6.61958 50.3907 2.84366e-05 7.69259e-06 120.274 10.3407 -11.3451 4.52777 42.516 -45.5736 26.8766 8.92905 50.7695 -12.0801 -27.9114 6.23666 -9.35323 -1.06943 -0.423544 0.00359975 -40.5629 6.90157 8.47007 -12.6967 43.5989 1.581 22.4372 23.392 -5.82911 0.490266 -24.3142 0.194467 
2.20992 76.0678 64.4124 0.753927 -3.79079 -40.946 -5.96314 15.5483 11.2406 -2.50738 5.72461 4.40504 -1.75099 0.873743 2.04981 1.81573 -2.34801 11.8443 -6.21729 4.36302 13.8863 -9.12831 -1.59853 9.63172 -64.8427 -21.3246 -53.208 -0.000335693 2.86647e-12 -98.5782 -8.32404 7.23712 -0.558427 -3.80478 2.624 13.9761 66.7557 9.306 49.9455 -1.34634e-05 -7.18096e-06 118.074 10.3689 -9.31679 3.58544 39.7341 -45.4735 25.0932 8.61514 54.6779 -12.4381 -27.2907 2.06805 -10.0384 1.47101e-05 -1.43153 -3.24946e-05 -40.1573 1.13809 6.00995 -15.9864 52.1454 7.71977 21.6151 20.843 -5.48113 6.57503e-06 -20.011 -1.47706e-05 
